<?xml version="1.0" encoding="utf-8"?>
<!-- Generator: Adobe Illustrator 23.0.6, SVG Export Plug-In . SVG Version: 6.00 Build 0)  -->
<svg version="1.1" id="Layer_1" xmlns="http://www.w3.org/2000/svg" xmlns:xlink="http://www.w3.org/1999/xlink" x="0px" y="0px"
	 viewBox="0 0 512 512" style="enable-background:new 0 0 512 512;" xml:space="preserve">
<style type="text/css">
	.st0{fill:#192DF1;}
</style>
<g>
	<g>
		<path d="M500.9,234.1c-3.5,0-7-0.3-10.5-1c-5.5-1-10.9,2.6-11.9,8.1c-1,5.5,2.6,10.9,8.1,11.9c4.7,0.9,9.5,1.3,14.2,1.3
			c5.6,0,10.2-4.6,10.2-10.2C511.1,238.7,506.5,234.1,500.9,234.1z"/>
	</g>
</g>
<g>
	<path d="M501.8,265.5h-53.5c0,0,0,0,0,0v-29.6c0,0,0,0,0.1,0c2,1.5,4.1,2.9,6.2,4.2c1.7,1.1,3.6,1.6,5.5,1.6c3.4,0,6.7-1.7,8.6-4.7
		c3-4.8,1.6-11.1-3.1-14.1c-36.6-23.2-61.1-74.9-61.1-108.7c0-0.2,0-0.4,0-0.6v-0.3c0-5.7-4.6-10.2-10.2-10.2h-31.3
		c-5.7,0-10.2,4.6-10.2,10.2v0.3c0,0.2,0,0.4,0,0.6c0,44.8-43.3,81.3-96.6,81.3s-96.6-36.5-96.6-81.3c0-0.2,0-0.4,0-0.6v-0.3
		c0-5.7-4.6-10.2-10.2-10.2h-31.3c-5.7,0-10.2,4.6-10.2,10.2v0.3c0,0.2,0,0.4,0,0.6c0,23.2-11.5,53.8-29.3,77.9
		c-11.5,15.6-35.4,41.7-66.9,41.9c-5.6,0-10.5,4.3-10.6,9.9c-0.2,5.8,4.5,10.5,10.2,10.5c18.4,0,36.6-6.7,53.4-19.2c0,0,0.1,0,0.1,0
		v30.1c0,0,0,0,0,0H10.2c-5.6,0-10.2,4.6-10.2,10.2v35.8c0,5.7,4.6,10.2,10.2,10.2h97.4c0,0,0,0,0,0v76.8c0,5.7,4.6,10.2,10.2,10.2
		h31.3c5.7,0,10.2-4.6,10.2-10.2v-76.8c0,0,0,0,0,0h193.1c0,0,0,0,0,0v76.8c0,5.7,4.6,10.2,10.2,10.2h31.3c5.7,0,10.2-4.6,10.2-10.2
		v-76.8c0,0,0,0,0,0h97.4c5.7,0,10.2-4.6,10.2-10.2v-35.8C512,270.1,507.4,265.5,501.8,265.5z M404.4,184.2
		c6.5,11.8,14.4,23.2,23.5,33.2c0,0,0,0,0,0v48.1c0,0,0,0,0,0h-23.5c0,0,0,0,0,0L404.4,184.2C404.3,184.2,404.4,184.1,404.4,184.2z
		 M328.6,194c9.2-6.4,17.3-13.9,24-22.3c0,0,0.1,0,0.1,0v93.9c0,0,0,0,0,0h-24c0,0,0,0,0,0L328.6,194C328.5,194,328.6,194,328.6,194
		z M308.1,205.3v60.2c0,0,0,0,0,0h-63c0,0,0,0,0,0v-50h0c3.6,0.3,27.8,0.7,31.5,0.7 M159.4,265.5v-94h0
		c15.4,19.5,38.4,34.2,65.3,40.7c0,0,0,0,0,0v53.3 M193.7,216.2 M94.8,204.3c4.7-6.4,9-13.1,12.8-20c0,0,0.1,0,0.1,0v81.2
		c0,0,0,0,0,0H85c0,0,0,0,0,0v-49c0,0,0-0.1,0-0.1C88.3,212.6,91.6,208.6,94.8,204.3z"/>
</g>
<rect x="944" y="63" class="st0" width="471.2" height="15.5"/>
</svg>
