<svg height="512pt" viewBox="0 -79 512 512" width="512pt" xmlns="http://www.w3.org/2000/svg"><path d="m496.941406 67.042969c-8.3125 0-15.058594 6.746093-15.058594 15.058593v1.707032c-22.90625-12.925782-49.609374-24.722656-78.828124-34.121094v-16.558594c0-8.3125-6.746094-15.058594-15.058594-15.058594s-15.058594 6.746094-15.058594 15.058594v7.964844c-29.25-7.3125-63.550781-12.949219-101.878906-14.140625v-11.894531c0-8.3125-6.746094-15.058594-15.058594-15.058594s-15.058594 6.746094-15.058594 15.058594v11.894531c-38.328125 1.191406-72.628906 6.828125-101.878906 14.140625v-7.964844c0-8.3125-6.734375-15.058594-15.058594-15.058594-8.3125 0-15.058594 6.746094-15.058594 15.058594v16.558594c-29.253906 9.40625-55.953124 21.210938-78.828124 34.121094v-1.707032c0-8.3125-6.746094-15.058593-15.058594-15.058593s-15.058594 6.746093-15.058594 15.058593v257.003907c0 8.3125 6.746094 15.058593 15.058594 15.058593h122.980468c8.3125 0 15.058594-6.746093 15.058594-15.058593v-29.617188c0-56.742187 46.160156-102.902343 102.902344-102.902343s102.902344 46.160156 102.902344 102.902343v29.617188c0 8.3125 6.746094 15.058593 15.058594 15.058593h122.980468c8.3125 0 15.058594-6.746093 15.058594-15.058593 0-11.960938 0-246.664063 0-257.003907 0-8.3125-6.746094-15.058593-15.058594-15.058593zm-373.960937 257.003906h-92.863281c0-4.601563 0-128.941406 0-135.792969 54.546874-35.40625 137.339843-62.152344 225.882812-62.152344 87.742188 0 171.070312 26.5 225.882812 62.164063v135.78125h-92.863281v-14.558594c0-73.347656-59.671875-133.019531-133.019531-133.019531s-133.019531 59.671875-133.019531 133.019531zm358.902343-205.058594v34.089844c-22.855468-12.878906-49.457031-24.675781-78.828124-34.125v-37.519531c31.15625 10.800781 58.929687 24.621094 78.828124 37.554687zm-108.945312-46.785156v38.167969c-29.246094-7.320313-63.550781-12.960938-101.878906-14.15625v-39.125c38.851562 1.292968 73.21875 7.433594 101.878906 15.113281zm-131.996094-15.113281v39.125c-38.328125 1.195312-72.632812 6.835937-101.878906 14.15625v-38.183594c29.269531-7.875 63.484375-13.835938 101.878906-15.097656zm-131.996094 24.375v37.488281c-29.375 9.449219-55.976562 21.25-78.828124 34.125v-34.089844c11.402343-7.410156 38.660156-23.542969 78.828124-37.523437zm0 0"/><path d="m80.3125 220.972656c0-8.3125-6.746094-15.058594-15.058594-15.058594h-6.355468c-8.320313 0-15.058594 6.746094-15.058594 15.058594s6.738281 15.058594 15.058594 15.058594h6.355468c8.3125 0 15.058594-6.746094 15.058594-15.058594zm0 0"/><path d="m377.472656 200.894531h6.355469c8.324219 0 15.058594-6.746093 15.058594-15.058593 0-8.347657-6.777344-15.058594-15.058594-15.058594h-6.355469c-8.269531 0-15.058594 6.707031-15.058594 15.058594 0 8.355468 6.789063 15.058593 15.058594 15.058593zm0 0"/><path d="m433.0625 227.78125h6.355469c8.3125 0 15.058593-6.746094 15.058593-15.058594s-6.746093-15.058594-15.058593-15.058594h-6.355469c-8.324219 0-15.058594 6.746094-15.058594 15.058594s6.734375 15.058594 15.058594 15.058594zm0 0"/><path d="m88.476562 260.847656h-6.355468c-8.3125 0-15.058594 6.746094-15.058594 15.058594 0 8.324219 6.746094 15.058594 15.058594 15.058594h6.355468c8.320313 0 15.058594-6.734375 15.058594-15.058594 0-8.3125-6.738281-15.058594-15.058594-15.058594zm0 0"/><path d="m429.878906 290.964844h6.355469c8.320313 0 15.058594-6.734375 15.058594-15.058594 0-8.3125-6.738281-15.058594-15.058594-15.058594h-6.355469c-8.3125 0-15.058594 6.746094-15.058594 15.058594 0 8.324219 6.746094 15.058594 15.058594 15.058594zm0 0"/></svg>